<svg xmlns="http://www.w3.org/2000/svg" xmlns:xlink="http://www.w3.org/1999/xlink" width="500" zoomAndPan="magnify" viewBox="0 0 375 262.499992" height="350" preserveAspectRatio="xMidYMid meet" version="1.0"><defs><g/><clipPath id="af78911080"><path d="M 47.191406 10.1875 L 241 10.1875 L 241 125 L 47.191406 125 Z M 47.191406 10.1875 " clip-rule="nonzero"/></clipPath><clipPath id="845187d939"><path d="M 301 99 L 327.90625 99 L 327.90625 123 L 301 123 Z M 301 99 " clip-rule="nonzero"/></clipPath></defs><g clip-path="url(#af78911080)"><path fill="#b71622" d="M 231.425781 10.265625 C 231.078125 10.261719 230.726562 10.261719 230.371094 10.261719 C 230.292969 10.261719 230.199219 10.265625 230.121094 10.265625 L 173.996094 10.265625 C 173.996094 10.265625 200.894531 12.316406 192.746094 15.09375 C 191.980469 15.292969 191.210938 15.496094 190.445312 15.703125 C 190.332031 15.726562 190.242188 15.75 190.121094 15.773438 L 190.230469 15.761719 C 187.207031 16.589844 184.210938 17.511719 181.246094 18.503906 C 181.339844 18.453125 181.40625 18.417969 181.40625 18.417969 L 133.082031 18.417969 C 133.082031 18.417969 166.882812 22.101562 166.507812 24.199219 C 166.507812 24.207031 166.507812 24.207031 166.507812 24.214844 C 161.808594 26.292969 157.203125 28.613281 152.714844 31.109375 L 70.96875 31.117188 C 70.96875 31.117188 137.195312 36.164062 133.039062 43.796875 L 133.042969 43.796875 C 129.996094 46.066406 127.042969 48.460938 124.15625 50.921875 L 47.191406 50.933594 C 47.191406 50.933594 103.152344 58.550781 108.933594 65.722656 C 93.332031 82.960938 81.777344 103.191406 76.289062 124.898438 L 80.285156 124.898438 C 95.925781 63.273438 161.914062 13.910156 229.566406 13.925781 C 229.914062 13.925781 230.277344 13.925781 230.621094 13.933594 C 230.621094 13.933594 240.664062 14.410156 240.824219 13.027344 C 241.132812 10.265625 231.425781 10.265625 231.425781 10.265625 Z M 231.425781 10.265625 " fill-opacity="1" fill-rule="nonzero"/></g><path fill="#545454" d="M 95.902344 99.089844 L 118.96875 104.867188 C 115.976562 110.53125 113.535156 116.433594 111.738281 122.507812 L 86.570312 122.5 C 88.824219 114.441406 91.980469 106.605469 95.902344 99.089844 Z M 95.902344 99.089844 " fill-opacity="1" fill-rule="nonzero"/><path fill="#545454" d="M 113.640625 73.0625 L 133.085938 84.320312 C 128.425781 89.71875 124.277344 95.496094 120.785156 101.554688 L 97.707031 95.78125 C 102.175781 87.773438 107.546875 80.164062 113.640625 73.0625 Z M 113.640625 73.0625 " fill-opacity="1" fill-rule="nonzero"/><path fill="#545454" d="M 137.65625 50.476562 L 151.8125 66.78125 C 146.003906 71.195312 140.597656 76.089844 135.714844 81.375 L 116.234375 70.101562 C 122.6875 62.976562 129.878906 56.394531 137.65625 50.476562 Z M 137.65625 50.476562 " fill-opacity="1" fill-rule="nonzero"/><path fill="#545454" d="M 165.949219 33.238281 L 174 53.25 C 167.371094 56.421875 161.027344 60.160156 155.066406 64.402344 L 140.890625 48.082031 C 148.746094 42.421875 157.160156 37.429688 165.949219 33.238281 Z M 165.949219 33.238281 " fill-opacity="1" fill-rule="nonzero"/><path fill="#545454" d="M 196.441406 22.386719 L 198.039062 44.65625 C 191.050781 46.347656 184.238281 48.675781 177.65625 51.570312 L 169.605469 31.550781 C 178.25 27.6875 187.246094 24.601562 196.441406 22.386719 Z M 196.441406 22.386719 " fill-opacity="1" fill-rule="nonzero"/><path fill="#545454" d="M 227.5625 18.417969 L 222.472656 41.476562 C 215.535156 41.597656 208.652344 42.398438 201.871094 43.800781 L 200.273438 21.519531 C 209.242188 19.617188 218.382812 18.546875 227.5625 18.417969 Z M 227.5625 18.417969 " fill-opacity="1" fill-rule="nonzero"/><path fill="#000dff" d="M 205.027344 111.222656 L 175.105469 111.230469 C 175.105469 111.230469 203.3125 113.378906 201.550781 116.628906 C 201.550781 116.628906 201.582031 116.613281 201.609375 116.601562 C 199.625 121.601562 202.667969 123.851562 202.855469 123.984375 C 202.855469 123.984375 207.261719 127.636719 213.394531 120.558594 C 219.535156 113.472656 274.390625 35.285156 274.390625 35.285156 C 274.390625 35.285156 278.433594 29.667969 279.183594 27.363281 C 279.285156 27.097656 279.4375 26.652344 279.371094 26.691406 C 279.375 26.601562 279.054688 26.792969 278.734375 27.023438 C 276.640625 28.339844 272.132812 33.605469 272.132812 33.605469 C 272.132812 33.605469 265.515625 41.144531 256.386719 51.574219 L 224.214844 51.574219 C 224.214844 51.574219 246.714844 53.292969 252.507812 56.015625 C 248.164062 61 243.433594 66.425781 238.65625 71.914062 L 193.957031 71.921875 C 193.957031 71.921875 233.945312 74.96875 231.992188 79.589844 C 228.203125 83.964844 224.519531 88.234375 221.109375 92.191406 L 166.46875 92.199219 C 166.46875 92.199219 215.421875 95.929688 212.351562 101.574219 Z M 205.027344 111.222656 " fill-opacity="1" fill-rule="nonzero"/><g clip-path="url(#845187d939)"><path fill="#ec1c24" d="M 327.304688 99.148438 L 301.695312 104.90625 C 302.1875 110.574219 302.011719 116.484375 301.105469 122.546875 L 326.277344 122.554688 C 327.597656 114.503906 327.90625 106.664062 327.304688 99.148438 Z M 327.304688 99.148438 " fill-opacity="1" fill-rule="nonzero"/></g><path fill="#ec1c24" d="M 321.082031 73.109375 L 296.660156 84.355469 C 298.941406 89.761719 300.523438 95.542969 301.328125 101.59375 L 326.976562 95.839844 C 326.03125 87.832031 324.035156 80.21875 321.082031 73.109375 Z M 321.082031 73.109375 " fill-opacity="1" fill-rule="nonzero"/><path fill="#ec1c24" d="M 307.050781 50.523438 L 285.675781 66.816406 C 289.539062 71.234375 292.789062 76.128906 295.34375 81.414062 L 319.789062 70.15625 C 316.488281 63.027344 312.207031 56.441406 307.050781 50.523438 Z M 307.050781 50.523438 " fill-opacity="1" fill-rule="nonzero"/><path fill="#ec1c24" d="M 286.382812 33.261719 L 269.484375 53.277344 C 274.714844 56.453125 279.398438 60.199219 283.488281 64.433594 L 304.867188 48.125 C 299.519531 42.460938 293.328125 37.460938 286.382812 33.261719 Z M 286.382812 33.261719 " fill-opacity="1" fill-rule="nonzero"/><path fill="#ec1c24" d="M 269.640625 31.410156 C 270.125 30.839844 271.929688 28.765625 273.796875 26.914062 C 269.617188 25.164062 265.253906 23.636719 260.699219 22.402344 L 249.261719 44.671875 C 251.605469 45.308594 253.867188 46.066406 256.082031 46.882812 C 264.039062 37.785156 269.640625 31.410156 269.640625 31.410156 Z M 269.640625 31.410156 " fill-opacity="1" fill-rule="nonzero"/><path fill="#ec1c24" d="M 231.332031 18.417969 L 226.234375 41.480469 C 233.101562 41.59375 239.652344 42.40625 245.800781 43.8125 L 257.242188 21.539062 C 249.125 19.625 240.453125 18.554688 231.332031 18.417969 Z M 231.332031 18.417969 " fill-opacity="1" fill-rule="nonzero"/><g fill="#000000" fill-opacity="1"><g transform="translate(5.792608, 193.893513)"><g><path d="M -4.078125 0 L -1.828125 -9.6875 L 1.125 -9.6875 L 7.28125 -36.296875 L 4.3125 -36.296875 L 6.5625 -45.984375 L 41.90625 -45.984375 L 38.359375 -30.671875 L 27.90625 -30.671875 L 29.203125 -36.296875 L 23.828125 -36.296875 L 21.578125 -26.484375 L 30.5 -26.484375 L 28.90625 -19.75 L 19.984375 -19.75 L 17.671875 -9.6875 L 25.421875 -9.6875 L 23.171875 0 Z M -4.078125 0 "/></g></g></g><g fill="#000000" fill-opacity="1"><g transform="translate(45.923513, 193.893513)"><g><path d="M 1.234375 0 L 3.484375 -9.6875 L 12.703125 -9.6875 L 10.46875 0 Z M 1.234375 0 "/></g></g></g><g fill="#000000" fill-opacity="1"><g transform="translate(63.12277, 193.893513)"><g><path d="M -4.078125 0 L -1.828125 -9.6875 L 1.125 -9.6875 L 7.28125 -36.296875 L 4.3125 -36.296875 L 6.5625 -45.984375 L 31.515625 -45.984375 L 29.265625 -36.296875 L 23.828125 -36.296875 L 17.671875 -9.6875 L 23 -9.6875 L 24.234375 -15.125 L 36 -15.125 L 32.515625 0 Z M -4.078125 0 "/></g></g></g><g fill="#000000" fill-opacity="1"><g transform="translate(104.494813, 193.893513)"><g><path d="M 1.234375 0 L 3.484375 -9.6875 L 12.703125 -9.6875 L 10.46875 0 Z M 1.234375 0 "/></g></g></g><g fill="#000000" fill-opacity="1"><g transform="translate(121.694072, 193.893513)"><g/></g></g><g fill="#000000" fill-opacity="1"><g transform="translate(142.203056, 193.893513)"><g><path d="M -1.828125 -9.6875 L 1.125 -9.6875 L 7.28125 -36.296875 L 4.3125 -36.296875 L 6.5625 -45.984375 L 32.515625 -45.984375 C 37.597656 -45.984375 41.222656 -44.890625 43.390625 -42.703125 C 45.554688 -40.515625 46.085938 -36.976562 44.984375 -32.09375 C 43.835938 -27.207031 41.671875 -23.671875 38.484375 -21.484375 C 35.296875 -19.296875 31.160156 -18.203125 26.078125 -18.203125 L 19.625 -18.203125 L 17.671875 -9.6875 L 23.359375 -9.6875 L 21.109375 0 L -4.078125 0 Z M 23.59375 -26.59375 C 25.875 -26.59375 27.3125 -27.851562 27.90625 -30.375 L 28.375 -32.515625 C 28.6875 -33.804688 28.625 -34.757812 28.1875 -35.375 C 27.757812 -35.988281 26.972656 -36.296875 25.828125 -36.296875 L 23.828125 -36.296875 L 21.578125 -26.59375 Z M 23.59375 -26.59375 "/></g></g></g><g fill="#000000" fill-opacity="1"><g transform="translate(188.598796, 193.893513)"><g><path d="M -4.078125 0 L -1.828125 -9.6875 L 1.125 -9.6875 L 7.28125 -36.296875 L 4.3125 -36.296875 L 6.5625 -45.984375 L 46.46875 -45.984375 L 42.328125 -28.140625 L 29.078125 -28.140625 L 30.984375 -36.296875 L 23.828125 -36.296875 L 21.640625 -26.953125 L 26.84375 -26.953125 L 25.296875 -20.21875 L 20.09375 -20.21875 L 17.671875 -9.6875 L 24.828125 -9.6875 L 27.015625 -19.03125 L 40.25 -19.03125 L 35.828125 0 Z M -4.078125 0 "/></g></g></g><g fill="#000000" fill-opacity="1"><g transform="translate(233.516965, 193.893513)"><g><path d="M 30.15625 -27.65625 L 31.15625 -31.921875 C 31.46875 -33.421875 31.378906 -34.523438 30.890625 -35.234375 C 30.398438 -35.941406 29.484375 -36.296875 28.140625 -36.296875 C 26.796875 -36.296875 25.703125 -35.941406 24.859375 -35.234375 C 24.015625 -34.523438 23.429688 -33.421875 23.109375 -31.921875 L 18.984375 -14.0625 C 18.628906 -12.570312 18.707031 -11.46875 19.21875 -10.75 C 19.726562 -10.039062 20.648438 -9.6875 21.984375 -9.6875 C 23.328125 -9.6875 24.410156 -10.039062 25.234375 -10.75 C 26.066406 -11.46875 26.660156 -12.570312 27.015625 -14.0625 L 28.140625 -18.859375 L 42.328125 -18.859375 L 38.78125 -3.546875 C 37.164062 -2.597656 34.945312 -1.707031 32.125 -0.875 C 29.3125 -0.0507812 26.289062 0.472656 23.0625 0.703125 L 22.703125 2.3125 C 24.472656 2.3125 25.800781 2.78125 26.6875 3.71875 C 27.570312 4.664062 27.800781 6.046875 27.375 7.859375 C 26.894531 9.984375 25.78125 11.628906 24.03125 12.796875 C 22.28125 13.960938 20.101562 14.546875 17.5 14.546875 C 15.25 14.546875 12.90625 14.191406 10.46875 13.484375 L 11.46875 9.28125 C 13.71875 9.832031 15.847656 10.109375 17.859375 10.109375 C 18.523438 10.109375 19.070312 9.929688 19.5 9.578125 C 19.9375 9.222656 20.21875 8.769531 20.34375 8.21875 C 20.457031 7.664062 20.382812 7.210938 20.125 6.859375 C 19.875 6.503906 19.410156 6.328125 18.734375 6.328125 L 16.140625 6.328125 L 17.4375 0.703125 C 4.039062 -0.203125 -0.941406 -8.101562 2.484375 -23 C 6.148438 -38.875 15.707031 -46.8125 31.15625 -46.8125 C 34.894531 -46.8125 38.257812 -46.359375 41.25 -45.453125 C 44.25 -44.546875 46.421875 -43.539062 47.765625 -42.4375 L 44.328125 -27.65625 Z M 30.15625 -27.65625 "/></g></g></g><g fill="#000000" fill-opacity="1"><g transform="translate(278.967072, 193.893513)"><g><path d="M 41.5625 -9.6875 L 43.921875 -9.6875 L 41.671875 0 L 18.5 0 L 20.75 -9.6875 L 24.296875 -9.6875 L 24.46875 -14.421875 L 16.4375 -14.421875 L 14.359375 -9.6875 L 17.90625 -9.6875 L 15.671875 0 L -4.546875 0 L -2.296875 -9.6875 L 0.0625 -9.6875 L 18.453125 -45.984375 L 39.96875 -45.984375 Z M 19.15625 -20.6875 L 24.59375 -20.6875 L 24.890625 -32.453125 L 24.296875 -32.453125 Z M 19.15625 -20.6875 "/></g></g></g><g fill="#000000" fill-opacity="1"><g transform="translate(329.38176, 193.893513)"><g><path d="M 14.078125 0.828125 C 10.285156 0.828125 6.785156 0.503906 3.578125 -0.140625 C 0.367188 -0.796875 -2.0625 -1.535156 -3.71875 -2.359375 L -1 -14.0625 L 12 -14.0625 C 11.726562 -12.84375 11.804688 -11.957031 12.234375 -11.40625 C 12.671875 -10.851562 13.617188 -10.578125 15.078125 -10.578125 C 16.296875 -10.578125 17.207031 -10.765625 17.8125 -11.140625 C 18.425781 -11.515625 18.816406 -12.078125 18.984375 -12.828125 C 19.140625 -13.453125 19.007812 -13.988281 18.59375 -14.4375 C 18.175781 -14.894531 17.398438 -15.363281 16.265625 -15.84375 L 11.59375 -17.609375 C 7.613281 -19.265625 4.921875 -21.210938 3.515625 -23.453125 C 2.117188 -25.703125 1.851562 -28.738281 2.71875 -32.5625 C 3.820312 -37.21875 6.175781 -40.753906 9.78125 -43.171875 C 13.382812 -45.597656 18.753906 -46.8125 25.890625 -46.8125 C 29.316406 -46.8125 32.457031 -46.46875 35.3125 -45.78125 C 38.175781 -45.09375 40.394531 -44.175781 41.96875 -43.03125 L 39.546875 -32.453125 L 27.71875 -32.453125 C 28.15625 -34.421875 27.15625 -35.40625 24.71875 -35.40625 C 23.53125 -35.40625 22.660156 -35.253906 22.109375 -34.953125 C 21.554688 -34.660156 21.203125 -34.140625 21.046875 -33.390625 C 20.890625 -32.722656 21.046875 -32.191406 21.515625 -31.796875 C 21.992188 -31.398438 22.84375 -30.988281 24.0625 -30.5625 L 28.796875 -28.78125 C 32.609375 -27.363281 35.210938 -25.519531 36.609375 -23.25 C 38.015625 -20.988281 38.285156 -18.023438 37.421875 -14.359375 C 36.273438 -9.359375 33.722656 -5.578125 29.765625 -3.015625 C 25.804688 -0.453125 20.578125 0.828125 14.078125 0.828125 Z M 14.078125 0.828125 "/></g></g></g><g fill="#000000" fill-opacity="1"><g transform="translate(88.348842, 230.022695)"><g><path d="M 1.171875 0 C 1.035156 0 0.925781 -0.0390625 0.84375 -0.125 C 0.769531 -0.207031 0.742188 -0.316406 0.765625 -0.453125 L 2.859375 -17.375 C 2.867188 -17.507812 2.921875 -17.617188 3.015625 -17.703125 C 3.109375 -17.785156 3.222656 -17.828125 3.359375 -17.828125 L 9.5 -17.828125 C 11.300781 -17.828125 12.734375 -17.390625 13.796875 -16.515625 C 14.859375 -15.640625 15.390625 -14.460938 15.390625 -12.984375 C 15.390625 -12.835938 15.367188 -12.59375 15.328125 -12.25 L 14.515625 -5.578125 C 14.378906 -4.472656 13.988281 -3.492188 13.34375 -2.640625 C 12.695312 -1.796875 11.851562 -1.144531 10.8125 -0.6875 C 9.769531 -0.226562 8.601562 0 7.3125 0 Z M 5.265625 -3.796875 C 5.265625 -3.671875 5.316406 -3.609375 5.421875 -3.609375 L 7.921875 -3.609375 C 8.585938 -3.609375 9.15625 -3.847656 9.625 -4.328125 C 10.101562 -4.816406 10.398438 -5.472656 10.515625 -6.296875 L 11.15625 -11.53125 C 11.175781 -11.65625 11.1875 -11.816406 11.1875 -12.015625 C 11.1875 -12.703125 11.003906 -13.238281 10.640625 -13.625 C 10.285156 -14.019531 9.800781 -14.21875 9.1875 -14.21875 L 6.71875 -14.21875 C 6.6875 -14.21875 6.648438 -14.195312 6.609375 -14.15625 C 6.566406 -14.125 6.546875 -14.082031 6.546875 -14.03125 Z M 5.265625 -3.796875 "/></g></g></g><g fill="#000000" fill-opacity="1"><g transform="translate(110.932001, 230.022695)"><g><path d="M 14.796875 -14.671875 C 14.773438 -14.535156 14.71875 -14.425781 14.625 -14.34375 C 14.53125 -14.257812 14.414062 -14.21875 14.28125 -14.21875 L 6.71875 -14.21875 C 6.6875 -14.21875 6.648438 -14.195312 6.609375 -14.15625 C 6.566406 -14.125 6.546875 -14.082031 6.546875 -14.03125 L 6.15625 -11 C 6.15625 -10.882812 6.207031 -10.828125 6.3125 -10.828125 L 11.078125 -10.828125 C 11.210938 -10.828125 11.316406 -10.78125 11.390625 -10.6875 C 11.472656 -10.601562 11.503906 -10.492188 11.484375 -10.359375 L 11.15625 -7.6875 C 11.101562 -7.382812 10.929688 -7.234375 10.640625 -7.234375 L 5.890625 -7.234375 C 5.785156 -7.234375 5.710938 -7.175781 5.671875 -7.0625 L 5.265625 -3.796875 C 5.265625 -3.671875 5.316406 -3.609375 5.421875 -3.609375 L 12.984375 -3.609375 C 13.117188 -3.609375 13.21875 -3.566406 13.28125 -3.484375 C 13.351562 -3.398438 13.382812 -3.289062 13.375 -3.15625 L 13.046875 -0.453125 C 13.023438 -0.316406 12.972656 -0.207031 12.890625 -0.125 C 12.804688 -0.0390625 12.695312 0 12.5625 0 L 1.171875 0 C 1.035156 0 0.925781 -0.0390625 0.84375 -0.125 C 0.769531 -0.207031 0.742188 -0.316406 0.765625 -0.453125 L 2.859375 -17.375 C 2.867188 -17.507812 2.921875 -17.617188 3.015625 -17.703125 C 3.109375 -17.785156 3.222656 -17.828125 3.359375 -17.828125 L 14.75 -17.828125 C 14.882812 -17.828125 14.984375 -17.785156 15.046875 -17.703125 C 15.117188 -17.617188 15.144531 -17.507812 15.125 -17.375 Z M 14.796875 -14.671875 "/></g></g></g><g fill="#000000" fill-opacity="1"><g transform="translate(132.522328, 230.022695)"><g><path d="M 6.875 0.203125 C 5.019531 0.203125 3.554688 -0.226562 2.484375 -1.09375 C 1.421875 -1.957031 0.890625 -3.117188 0.890625 -4.578125 C 0.890625 -4.734375 0.90625 -4.984375 0.9375 -5.328125 L 1 -5.65625 C 1.007812 -5.789062 1.0625 -5.898438 1.15625 -5.984375 C 1.25 -6.066406 1.363281 -6.109375 1.5 -6.109375 L 4.640625 -6.109375 C 4.773438 -6.109375 4.878906 -6.078125 4.953125 -6.015625 C 5.023438 -5.960938 5.054688 -5.894531 5.046875 -5.8125 L 4.984375 -5.5 C 4.921875 -4.957031 5.128906 -4.472656 5.609375 -4.046875 C 6.097656 -3.617188 6.765625 -3.40625 7.609375 -3.40625 C 8.390625 -3.40625 8.972656 -3.585938 9.359375 -3.953125 C 9.742188 -4.328125 9.9375 -4.734375 9.9375 -5.171875 C 9.9375 -5.597656 9.753906 -5.921875 9.390625 -6.140625 C 9.023438 -6.359375 8.363281 -6.640625 7.40625 -6.984375 C 7.320312 -7.015625 7.234375 -7.046875 7.140625 -7.078125 C 7.046875 -7.109375 6.957031 -7.144531 6.875 -7.1875 C 5.9375 -7.519531 5.113281 -7.875 4.40625 -8.25 C 3.707031 -8.625 3.113281 -9.132812 2.625 -9.78125 C 2.132812 -10.425781 1.890625 -11.21875 1.890625 -12.15625 C 1.890625 -12.289062 1.90625 -12.507812 1.9375 -12.8125 C 2.070312 -13.863281 2.453125 -14.785156 3.078125 -15.578125 C 3.710938 -16.367188 4.53125 -16.972656 5.53125 -17.390625 C 6.53125 -17.816406 7.632812 -18.03125 8.84375 -18.03125 C 10.007812 -18.03125 11.046875 -17.828125 11.953125 -17.421875 C 12.859375 -17.015625 13.566406 -16.429688 14.078125 -15.671875 C 14.585938 -14.921875 14.84375 -14.050781 14.84375 -13.0625 C 14.84375 -12.914062 14.828125 -12.671875 14.796875 -12.328125 L 14.765625 -12.125 C 14.753906 -11.988281 14.703125 -11.878906 14.609375 -11.796875 C 14.523438 -11.710938 14.414062 -11.671875 14.28125 -11.671875 L 11.125 -11.671875 C 10.988281 -11.671875 10.882812 -11.691406 10.8125 -11.734375 C 10.738281 -11.785156 10.707031 -11.847656 10.71875 -11.921875 L 10.75 -12.15625 L 10.765625 -12.40625 C 10.765625 -12.945312 10.539062 -13.414062 10.09375 -13.8125 C 9.644531 -14.21875 9.019531 -14.421875 8.21875 -14.421875 C 7.53125 -14.421875 6.976562 -14.257812 6.5625 -13.9375 C 6.15625 -13.625 5.953125 -13.1875 5.953125 -12.625 C 5.953125 -12.320312 6.0625 -12.0625 6.28125 -11.84375 C 6.507812 -11.625 6.84375 -11.414062 7.28125 -11.21875 C 7.726562 -11.019531 8.410156 -10.753906 9.328125 -10.421875 C 10.335938 -10.054688 11.132812 -9.734375 11.71875 -9.453125 C 12.3125 -9.179688 12.859375 -8.738281 13.359375 -8.125 C 13.859375 -7.507812 14.109375 -6.726562 14.109375 -5.78125 C 14.109375 -5.664062 14.09375 -5.453125 14.0625 -5.140625 C 13.925781 -4.078125 13.535156 -3.140625 12.890625 -2.328125 C 12.242188 -1.523438 11.398438 -0.898438 10.359375 -0.453125 C 9.328125 -0.015625 8.164062 0.203125 6.875 0.203125 Z M 6.875 0.203125 "/></g></g></g><g fill="#000000" fill-opacity="1"><g transform="translate(154.545431, 230.022695)"><g><path d="M 1.203125 0 C 1.066406 0 0.957031 -0.0390625 0.875 -0.125 C 0.800781 -0.207031 0.773438 -0.316406 0.796875 -0.453125 L 2.875 -17.375 C 2.894531 -17.507812 2.953125 -17.617188 3.046875 -17.703125 C 3.140625 -17.785156 3.253906 -17.828125 3.390625 -17.828125 L 6.578125 -17.828125 C 6.804688 -17.828125 6.96875 -17.722656 7.0625 -17.515625 L 9.65625 -12.046875 C 9.71875 -11.941406 9.800781 -11.941406 9.90625 -12.046875 L 13.875 -17.515625 C 14.007812 -17.722656 14.195312 -17.828125 14.4375 -17.828125 L 17.625 -17.828125 C 17.757812 -17.828125 17.859375 -17.785156 17.921875 -17.703125 C 17.992188 -17.617188 18.019531 -17.507812 18 -17.375 L 15.9375 -0.453125 C 15.925781 -0.316406 15.875 -0.207031 15.78125 -0.125 C 15.6875 -0.0390625 15.570312 0 15.4375 0 L 12.21875 0 C 11.9375 0 11.8125 -0.148438 11.84375 -0.453125 L 13.0625 -10.421875 L 13.0625 -10.46875 C 13.0625 -10.53125 13.039062 -10.5625 13 -10.5625 C 12.957031 -10.5625 12.910156 -10.53125 12.859375 -10.46875 L 10.46875 -7.109375 C 10.332031 -6.898438 10.144531 -6.796875 9.90625 -6.796875 L 8.40625 -6.796875 C 8.144531 -6.796875 7.984375 -6.898438 7.921875 -7.109375 L 6.3125 -10.46875 C 6.28125 -10.550781 6.242188 -10.582031 6.203125 -10.5625 C 6.160156 -10.550781 6.128906 -10.503906 6.109375 -10.421875 L 4.890625 -0.453125 C 4.867188 -0.316406 4.816406 -0.207031 4.734375 -0.125 C 4.648438 -0.0390625 4.539062 0 4.40625 0 Z M 1.203125 0 "/></g></g></g><g fill="#000000" fill-opacity="1"><g transform="translate(179.496129, 230.022695)"><g><path d="M 12.125 0 C 11.851562 0 11.707031 -0.125 11.6875 -0.375 L 11.359375 -2.46875 C 11.359375 -2.570312 11.300781 -2.625 11.1875 -2.625 L 5.609375 -2.625 C 5.503906 -2.625 5.4375 -2.570312 5.40625 -2.46875 L 4.5625 -0.375 C 4.476562 -0.125 4.300781 0 4.03125 0 L 0.53125 0 C 0.289062 0 0.171875 -0.101562 0.171875 -0.3125 L 0.234375 -0.515625 L 7.515625 -17.453125 C 7.617188 -17.703125 7.804688 -17.828125 8.078125 -17.828125 L 12.421875 -17.828125 C 12.703125 -17.828125 12.863281 -17.703125 12.90625 -17.453125 L 16.046875 -0.515625 L 16.046875 -0.40625 C 16.046875 -0.132812 15.898438 0 15.609375 0 Z M 6.84375 -6.09375 C 6.8125 -6.039062 6.804688 -5.992188 6.828125 -5.953125 C 6.859375 -5.910156 6.910156 -5.890625 6.984375 -5.890625 L 10.625 -5.890625 C 10.6875 -5.890625 10.734375 -5.910156 10.765625 -5.953125 C 10.804688 -5.992188 10.816406 -6.039062 10.796875 -6.09375 L 9.75 -12.859375 C 9.738281 -12.941406 9.710938 -12.984375 9.671875 -12.984375 C 9.628906 -12.984375 9.585938 -12.941406 9.546875 -12.859375 Z M 6.84375 -6.09375 "/></g></g></g><g fill="#000000" fill-opacity="1"><g transform="translate(203.963128, 230.022695)"><g><path d="M 1.203125 0 C 1.066406 0 0.957031 -0.0390625 0.875 -0.125 C 0.800781 -0.207031 0.773438 -0.316406 0.796875 -0.453125 L 2.875 -17.375 C 2.894531 -17.507812 2.953125 -17.617188 3.046875 -17.703125 C 3.140625 -17.785156 3.253906 -17.828125 3.390625 -17.828125 L 6.421875 -17.828125 C 6.640625 -17.828125 6.800781 -17.722656 6.90625 -17.515625 L 11.15625 -8.046875 C 11.1875 -7.984375 11.21875 -7.953125 11.25 -7.953125 C 11.300781 -7.953125 11.347656 -8.007812 11.390625 -8.125 L 12.484375 -17.375 C 12.535156 -17.675781 12.703125 -17.828125 12.984375 -17.828125 L 16.140625 -17.828125 C 16.273438 -17.828125 16.378906 -17.785156 16.453125 -17.703125 C 16.523438 -17.617188 16.550781 -17.507812 16.53125 -17.375 L 14.46875 -0.453125 C 14.414062 -0.148438 14.242188 0 13.953125 0 L 10.921875 0 C 10.703125 0 10.539062 -0.101562 10.4375 -0.3125 L 6.1875 -9.90625 C 6.15625 -9.988281 6.113281 -10.019531 6.0625 -10 C 6.007812 -9.988281 5.972656 -9.941406 5.953125 -9.859375 L 4.84375 -0.453125 C 4.820312 -0.316406 4.769531 -0.207031 4.6875 -0.125 C 4.601562 -0.0390625 4.492188 0 4.359375 0 Z M 1.203125 0 "/></g></g></g><g fill="#000000" fill-opacity="1"><g transform="translate(227.411835, 230.022695)"><g><path d="M 7.03125 0.203125 C 5.207031 0.203125 3.769531 -0.285156 2.71875 -1.265625 C 1.664062 -2.253906 1.140625 -3.582031 1.140625 -5.25 C 1.140625 -5.65625 1.160156 -5.96875 1.203125 -6.1875 L 1.890625 -11.6875 C 2.035156 -12.945312 2.4375 -14.054688 3.09375 -15.015625 C 3.757812 -15.972656 4.628906 -16.710938 5.703125 -17.234375 C 6.773438 -17.765625 7.960938 -18.03125 9.265625 -18.03125 C 11.097656 -18.03125 12.546875 -17.566406 13.609375 -16.640625 C 14.671875 -15.710938 15.203125 -14.460938 15.203125 -12.890625 C 15.203125 -12.710938 15.1875 -12.421875 15.15625 -12.015625 C 15.15625 -11.867188 15.003906 -11.773438 14.703125 -11.734375 L 11.46875 -11.515625 L 11.359375 -11.515625 C 11.117188 -11.515625 11 -11.554688 11 -11.640625 L 11.03125 -11.796875 C 11.039062 -11.890625 11.046875 -12.03125 11.046875 -12.21875 C 11.046875 -12.90625 10.847656 -13.441406 10.453125 -13.828125 C 10.054688 -14.222656 9.519531 -14.421875 8.84375 -14.421875 C 8.09375 -14.421875 7.453125 -14.175781 6.921875 -13.6875 C 6.398438 -13.207031 6.085938 -12.578125 5.984375 -11.796875 L 5.265625 -6.015625 C 5.253906 -5.929688 5.25 -5.800781 5.25 -5.625 C 5.25 -4.945312 5.453125 -4.40625 5.859375 -4 C 6.265625 -3.601562 6.804688 -3.40625 7.484375 -3.40625 C 8.253906 -3.40625 8.894531 -3.644531 9.40625 -4.125 C 9.925781 -4.601562 10.226562 -5.234375 10.3125 -6.015625 C 10.332031 -6.097656 10.382812 -6.164062 10.46875 -6.21875 C 10.550781 -6.28125 10.660156 -6.304688 10.796875 -6.296875 L 14.015625 -6.109375 C 14.296875 -6.078125 14.429688 -6.035156 14.421875 -5.984375 L 14.421875 -5.859375 C 14.265625 -4.648438 13.851562 -3.585938 13.1875 -2.671875 C 12.53125 -1.753906 11.671875 -1.046875 10.609375 -0.546875 C 9.546875 -0.046875 8.351562 0.203125 7.03125 0.203125 Z M 7.03125 0.203125 "/></g></g></g><g fill="#000000" fill-opacity="1"><g transform="translate(249.791331, 230.022695)"><g><path d="M 11.8125 -17.375 C 11.832031 -17.507812 11.890625 -17.617188 11.984375 -17.703125 C 12.078125 -17.785156 12.191406 -17.828125 12.328125 -17.828125 L 15.53125 -17.828125 C 15.664062 -17.828125 15.765625 -17.785156 15.828125 -17.703125 C 15.898438 -17.617188 15.929688 -17.507812 15.921875 -17.375 L 13.828125 -0.453125 C 13.804688 -0.316406 13.753906 -0.207031 13.671875 -0.125 C 13.585938 -0.0390625 13.476562 0 13.34375 0 L 10.140625 0 C 10.003906 0 9.894531 -0.0390625 9.8125 -0.125 C 9.738281 -0.207031 9.710938 -0.316406 9.734375 -0.453125 L 10.546875 -7.03125 L 10.546875 -7.078125 C 10.546875 -7.160156 10.492188 -7.203125 10.390625 -7.203125 L 5.890625 -7.203125 C 5.785156 -7.203125 5.710938 -7.144531 5.671875 -7.03125 L 4.859375 -0.453125 C 4.847656 -0.316406 4.796875 -0.207031 4.703125 -0.125 C 4.617188 -0.0390625 4.507812 0 4.375 0 L 1.171875 0 C 1.035156 0 0.925781 -0.0390625 0.84375 -0.125 C 0.769531 -0.207031 0.742188 -0.316406 0.765625 -0.453125 L 2.859375 -17.375 C 2.867188 -17.507812 2.921875 -17.617188 3.015625 -17.703125 C 3.109375 -17.785156 3.222656 -17.828125 3.359375 -17.828125 L 6.578125 -17.828125 C 6.710938 -17.828125 6.8125 -17.785156 6.875 -17.703125 C 6.945312 -17.617188 6.972656 -17.507812 6.953125 -17.375 L 6.15625 -11 C 6.15625 -10.882812 6.207031 -10.828125 6.3125 -10.828125 L 10.84375 -10.828125 C 10.96875 -10.828125 11.03125 -10.882812 11.03125 -11 Z M 11.8125 -17.375 "/></g></g></g><g fill="#000000" fill-opacity="1"><g transform="translate(272.399945, 230.022695)"><g><path d="M 14.796875 -14.671875 C 14.773438 -14.535156 14.71875 -14.425781 14.625 -14.34375 C 14.53125 -14.257812 14.414062 -14.21875 14.28125 -14.21875 L 6.71875 -14.21875 C 6.6875 -14.21875 6.648438 -14.195312 6.609375 -14.15625 C 6.566406 -14.125 6.546875 -14.082031 6.546875 -14.03125 L 6.15625 -11 C 6.15625 -10.882812 6.207031 -10.828125 6.3125 -10.828125 L 11.078125 -10.828125 C 11.210938 -10.828125 11.316406 -10.78125 11.390625 -10.6875 C 11.472656 -10.601562 11.503906 -10.492188 11.484375 -10.359375 L 11.15625 -7.6875 C 11.101562 -7.382812 10.929688 -7.234375 10.640625 -7.234375 L 5.890625 -7.234375 C 5.785156 -7.234375 5.710938 -7.175781 5.671875 -7.0625 L 5.265625 -3.796875 C 5.265625 -3.671875 5.316406 -3.609375 5.421875 -3.609375 L 12.984375 -3.609375 C 13.117188 -3.609375 13.21875 -3.566406 13.28125 -3.484375 C 13.351562 -3.398438 13.382812 -3.289062 13.375 -3.15625 L 13.046875 -0.453125 C 13.023438 -0.316406 12.972656 -0.207031 12.890625 -0.125 C 12.804688 -0.0390625 12.695312 0 12.5625 0 L 1.171875 0 C 1.035156 0 0.925781 -0.0390625 0.84375 -0.125 C 0.769531 -0.207031 0.742188 -0.316406 0.765625 -0.453125 L 2.859375 -17.375 C 2.867188 -17.507812 2.921875 -17.617188 3.015625 -17.703125 C 3.109375 -17.785156 3.222656 -17.828125 3.359375 -17.828125 L 14.75 -17.828125 C 14.882812 -17.828125 14.984375 -17.785156 15.046875 -17.703125 C 15.117188 -17.617188 15.144531 -17.507812 15.125 -17.375 Z M 14.796875 -14.671875 "/></g></g></g></svg>